<svg xmlns="http://www.w3.org/2000/svg" xmlns:xlink="http://www.w3.org/1999/xlink" width="16px" height="16px" viewBox="0 0 16 16" version="1.1">
<g id="surface1">
<path style=" stroke:none;fill-rule:nonzero;fill:rgb(0%,0%,0%);fill-opacity:1;" d="M 8 0 C 3.589844 0 0 3.589844 0 8 C 0 12.410156 3.589844 16 8 16 C 12.410156 16 16 12.410156 16 8 C 16 3.589844 12.410156 0 8 0 Z M 8 14.855469 C 4.21875 14.855469 1.144531 11.78125 1.144531 8 C 1.144531 4.21875 4.21875 1.144531 8 1.144531 C 11.78125 1.144531 14.855469 4.21875 14.855469 8 C 14.855469 11.78125 11.78125 14.855469 8 14.855469 Z M 8 14.855469 "></path>
<path style=" stroke:none;fill-rule:nonzero;fill:rgb(0%,0%,0%);fill-opacity:1;" d="M 10.453125 5.546875 C 10.226562 5.324219 9.867188 5.324219 9.644531 5.546875 L 8 7.191406 L 6.355469 5.546875 C 6.132812 5.324219 5.773438 5.324219 5.546875 5.546875 C 5.324219 5.773438 5.324219 6.132812 5.546875 6.355469 L 7.191406 8 L 5.546875 9.644531 C 5.324219 9.867188 5.324219 10.226562 5.546875 10.453125 C 5.660156 10.5625 5.804688 10.617188 5.953125 10.617188 C 6.097656 10.617188 6.246094 10.5625 6.355469 10.453125 L 8 8.808594 L 9.644531 10.453125 C 9.753906 10.5625 9.902344 10.617188 10.046875 10.617188 C 10.195312 10.617188 10.339844 10.5625 10.453125 10.453125 C 10.675781 10.226562 10.675781 9.867188 10.453125 9.644531 L 8.808594 8 L 10.453125 6.355469 C 10.675781 6.132812 10.675781 5.773438 10.453125 5.546875 Z M 10.453125 5.546875 "></path>
</g>
</svg>
