<svg enable-background="new 0 0 1200 1200" height="1200" viewBox="0 0 1200 1200" width="1200" xmlns="http://www.w3.org/2000/svg"><path d="m381.64 1200c-245.861-138.566-310.591-269.722-273.583-448.852 27.321-132.271 116.782-239.886 125.36-371.903 38.215 69.544 54.183 119.691 58.453 192.364 121.543-148.914 201.861-355.063 206.617-571.609 0 0 316.575 186.01 337.348 466.98 27.253-57.913 40.972-149.892 13.719-209.504 81.757 59.615 560.293 588.838-64.818 942.524 117.527-228.838 30.32-537.611-173.739-680.218 13.628 61.319-10.265 290.021-100.542 390.515 25.014-167.916-23.8-238.918-23.8-238.918s-16.754 94.054-81.758 189.065c-59.36 86.762-100.49 178.847-23.257 339.556z"/></svg>